<svg id="document" xmlns="http://www.w3.org/2000/svg" width="30.714" height="40" viewBox="0 0 30.714 40">
  <path id="Caminho_9745" data-name="Caminho 9745" d="M28.275,0H7.545C6.968,0,6.5.468,6.5,1.376v37.91A1.076,1.076,0,0,0,7.545,40H36.169a1.076,1.076,0,0,0,1.045-.714V9.27c0-.5-.066-.657-.184-.775L28.719.184A.631.631,0,0,0,28.275,0Z" transform="translate(-6.5)" fill="#e0e7e9"/>
  <path id="Caminho_9746" data-name="Caminho 9746" d="M37.5.151V8.72h8.569Z" transform="translate(-15.464 -0.042)" fill="#cad0d9"/>
  <path id="Caminho_9747" data-name="Caminho 9747" d="M16.562,12.446H12.223a.723.723,0,1,1,0-1.446h4.339a.723.723,0,1,1,0,1.446Z" transform="translate(-7.884 -3.146)" fill="#0491cd"/>
  <path id="Caminho_9748" data-name="Caminho 9748" d="M18.732,17.446H12.223a.723.723,0,1,1,0-1.446h6.509a.723.723,0,0,1,0,1.446Z" transform="translate(-7.884 -4.577)" fill="#0491cd"/>
  <path id="Caminho_9749" data-name="Caminho 9749" d="M25.223,17.45a.716.716,0,1,1,.513-.21A.76.76,0,0,1,25.223,17.45Z" transform="translate(-11.651 -4.58)" fill="#0491cd"/>
  <path id="Caminho_9750" data-name="Caminho 9750" d="M35.009,17.446H29.223a.723.723,0,1,1,0-1.446h5.786a.723.723,0,0,1,0,1.446Z" transform="translate(-12.845 -4.577)" fill="#0491cd"/>
  <path id="Caminho_9751" data-name="Caminho 9751" d="M12.223,32.45a.725.725,0,1,1,.513-1.237.747.747,0,0,1,.21.513.716.716,0,0,1-.723.723Z" transform="translate(-7.884 -8.871)" fill="#0491cd"/>
  <path id="Caminho_9752" data-name="Caminho 9752" d="M22.009,32.446H16.223a.723.723,0,1,1,0-1.446h5.786a.723.723,0,1,1,0,1.446Z" transform="translate(-9.096 -8.867)" fill="#0491cd"/>
  <path id="Caminho_9753" data-name="Caminho 9753" d="M42.67,17.446H41.223a.723.723,0,1,1,0-1.446H42.67a.723.723,0,0,1,0,1.446Z" transform="translate(-16.294 -4.577)" fill="#0491cd"/>
  <path id="Caminho_9754" data-name="Caminho 9754" d="M28.134,22.446H12.223a.723.723,0,1,1,0-1.446h15.91a.723.723,0,0,1,0,1.446Z" transform="translate(-7.884 -6.007)" fill="#0491cd"/>
  <path id="Caminho_9755" data-name="Caminho 9755" d="M41.562,22.446H37.223a.723.723,0,1,1,0-1.446h4.339a.723.723,0,1,1,0,1.446Z" transform="translate(-15.187 -6.007)" fill="#0491cd"/>
  <path id="Caminho_9756" data-name="Caminho 9756" d="M15.116,27.446H12.223a.723.723,0,1,1,0-1.446h2.893a.723.723,0,1,1,0,1.446Z" transform="translate(-7.884 -7.437)" fill="#0491cd"/>
  <path id="Caminho_9757" data-name="Caminho 9757" d="M27.455,27.446H20.223a.723.723,0,1,1,0-1.446h7.232a.723.723,0,0,1,0,1.446Z" transform="translate(-10.259 -7.437)" fill="#0491cd"/>
  <path id="Caminho_9758" data-name="Caminho 9758" d="M40.732,27.446H34.223a.723.723,0,1,1,0-1.446h6.509a.723.723,0,0,1,0,1.446Z" transform="translate(-14.357 -7.437)" fill="#0491cd"/>
  <path id="Caminho_9759" data-name="Caminho 9759" d="M36.169,51.294H7.545A1.052,1.052,0,0,1,6.5,50.236V39H37.214V50.236A1.052,1.052,0,0,1,36.169,51.294Z" transform="translate(-6.5 -11.294)" fill="#0491cd"/>
  <g id="Grupo_1498" data-name="Grupo 1498" transform="translate(6.196 30.425)">
    <path id="Caminho_9760" data-name="Caminho 9760" d="M21.248,46.365a5.353,5.353,0,0,1-.193,1.538,3.822,3.822,0,0,1-.49,1.068,2.515,2.515,0,0,1-.668.678,3.348,3.348,0,0,1-.717.371,2.961,2.961,0,0,1-.633.158,4.217,4.217,0,0,1-.425.033H15.366V42.924H17.56a4.17,4.17,0,0,1,1.616.291,3.356,3.356,0,0,1,1.157.776,3.185,3.185,0,0,1,.687,1.1A3.65,3.65,0,0,1,21.248,46.365Zm-3.52,2.976a1.964,1.964,0,0,0,1.74-.771A3.914,3.914,0,0,0,20,46.335a3.785,3.785,0,0,0-.108-.9,1.925,1.925,0,0,0-.42-.806,2.217,2.217,0,0,0-.845-.584,3.64,3.64,0,0,0-1.384-.223h-.692v5.517h1.177Z" transform="translate(-15.366 -42.805)" fill="#fff"/>
    <path id="Caminho_9761" data-name="Caminho 9761" d="M31.152,46.487a5.162,5.162,0,0,1-.232,1.621,3.307,3.307,0,0,1-.643,1.167,2.69,2.69,0,0,1-.959.7,3.16,3.16,0,0,1-2.4,0,2.69,2.69,0,0,1-.959-.7,3.313,3.313,0,0,1-.643-1.167,5.761,5.761,0,0,1,0-3.238,3.3,3.3,0,0,1,.643-1.161A2.748,2.748,0,0,1,26.915,43a3.1,3.1,0,0,1,2.4,0,2.748,2.748,0,0,1,.959.707,3.332,3.332,0,0,1,.643,1.161A5.134,5.134,0,0,1,31.152,46.487Zm-3.066,2.759a1.741,1.741,0,0,0,.7-.143,1.559,1.559,0,0,0,.593-.469,2.376,2.376,0,0,0,.41-.856,5.139,5.139,0,0,0,.158-1.29,5.044,5.044,0,0,0-.153-1.261,2.53,2.53,0,0,0-.4-.856,1.524,1.524,0,0,0-.573-.485,1.593,1.593,0,0,0-.678-.148,1.785,1.785,0,0,0-.7.138,1.493,1.493,0,0,0-.593.469,2.418,2.418,0,0,0-.41.856,5.046,5.046,0,0,0-.158,1.285,5.109,5.109,0,0,0,.153,1.266,2.479,2.479,0,0,0,.4.856,1.586,1.586,0,0,0,.573.485A1.561,1.561,0,0,0,28.086,49.246Z" transform="translate(-18.055 -42.76)" fill="#fff"/>
    <path id="Caminho_9762" data-name="Caminho 9762" d="M40.67,49.424a2.7,2.7,0,0,1-.919.593,3.046,3.046,0,0,1-1.107.2,2.99,2.99,0,0,1-1.2-.237,2.69,2.69,0,0,1-.959-.7,3.313,3.313,0,0,1-.643-1.167,5.761,5.761,0,0,1,0-3.238,3.3,3.3,0,0,1,.643-1.161A2.734,2.734,0,0,1,37.447,43a2.943,2.943,0,0,1,1.2-.242,3.062,3.062,0,0,1,1.107.2,2.7,2.7,0,0,1,.919.593l-.821.732a1.5,1.5,0,0,0-.549-.415,1.591,1.591,0,0,0-.628-.129,1.785,1.785,0,0,0-.7.138,1.493,1.493,0,0,0-.593.469,2.418,2.418,0,0,0-.41.856,5.046,5.046,0,0,0-.158,1.285,5.109,5.109,0,0,0,.153,1.266,2.479,2.479,0,0,0,.4.856,1.586,1.586,0,0,0,.573.485,1.546,1.546,0,0,0,.678.153,1.737,1.737,0,0,0,.668-.129,1.567,1.567,0,0,0,.568-.415Z" transform="translate(-20.969 -42.76)" fill="#fff"/>
  </g>
</svg>
