<svg xmlns="http://www.w3.org/2000/svg" width="19.554" height="15.134" viewBox="0 0 17.554 13.134">
  <g id="download" transform="translate(0 -35.289)">
    <g id="Grupo_1507" data-name="Grupo 1507" transform="translate(0 35.289)">
      <g id="Grupo_1506" data-name="Grupo 1506">
        <path id="Caminho_9816" data-name="Caminho 9816" d="M14.267,40.68a5.544,5.544,0,0,0-10.975-.952,4.188,4.188,0,0,0,.433,8.252l.036,0h.105V46.662l0-.042h0v0h-.03a2.817,2.817,0,0,1,.11-5.6l.568-.045.058-.567a4.175,4.175,0,0,1,8.327.432v1.2h.992a2.293,2.293,0,1,1,0,4.585h-.171v1.369h.171a3.661,3.661,0,0,0,.374-7.3Z" transform="translate(0 -35.289)" fill="#707070"/>
      </g>
    </g>
    <g id="Grupo_1509" data-name="Grupo 1509" transform="translate(5.055 41.004)">
      <g id="Grupo_1508" data-name="Grupo 1508">
        <path id="Caminho_9817" data-name="Caminho 9817" d="M153.871,206.71l-2.053,2.053v-4.8h-1.369v4.8L148.4,206.71l-.968.968,3.705,3.705,3.705-3.705Z" transform="translate(-147.428 -203.963)" fill="#707070"/>
      </g>
    </g>
  </g>
</svg>
