<svg id="gif" xmlns="http://www.w3.org/2000/svg" width="30.714" height="40" viewBox="0 0 30.714 40">
  <path id="Caminho_9770" data-name="Caminho 9770" d="M28.275,0H7.545C6.968,0,6.5.468,6.5,1.376v37.91A1.076,1.076,0,0,0,7.545,40H36.169a1.076,1.076,0,0,0,1.045-.714V9.27c0-.5-.066-.657-.184-.775L28.719.184A.631.631,0,0,0,28.275,0Z" transform="translate(-6.5)" fill="#e0e7e9"/>
  <path id="Caminho_9906" data-name="Caminho 9906" d="M6.5,33.109H37.143V25.27L30.017,18.5l-7.483,8.2-3.907-3.907Z" transform="translate(-6.44 -5.313)" fill="#9db471"/>
  <path id="Caminho_9771" data-name="Caminho 9771" d="M37.5.151V8.72h8.569Z" transform="translate(-15.464 -0.042)" fill="#cad0d9"/>
  <path id="Caminho_9773" data-name="Caminho 9773" d="M36.169,51.294H7.545A1.052,1.052,0,0,1,6.5,50.236V39H37.214V50.236A1.052,1.052,0,0,1,36.169,51.294Z" transform="translate(-6.5 -11.294)" fill="#9db471"/>
  <g id="Grupo_1500" data-name="Grupo 1500" transform="translate(4.487 30.543)">
    <path id="Caminho_9776" data-name="Caminho 9776" d="M35.8,43.824v2.294H38.85v.811H35.8v3.283H34.6V42.924h4.558v.9Z" transform="translate(-20.963 -42.924)" fill="#fff"/>
    <path id="Caminho_9909" data-name="Caminho 9909" d="M28.809,50.211H27.6V42.924h1.206Z" transform="translate(-17.025 -42.924)" fill="#fff"/>
    <path id="Caminho_9769" data-name="Caminho 9769" d="M37.37,46.307V49.1a2.109,2.109,0,0,1-.5.465,3.084,3.084,0,0,1-.588.3,3.032,3.032,0,0,1-.637.166,4.189,4.189,0,0,1-.652.05,2.963,2.963,0,0,1-1.19-.235,2.666,2.666,0,0,1-.95-.7,3.283,3.283,0,0,1-.637-1.156,5.709,5.709,0,0,1,0-3.209,3.267,3.267,0,0,1,.637-1.151,2.709,2.709,0,0,1,.955-.7,2.916,2.916,0,0,1,1.185-.24,3.034,3.034,0,0,1,1.1.2,2.677,2.677,0,0,1,.911.588l-.813.725a1.4,1.4,0,0,0-.539-.411,1.614,1.614,0,0,0-.627-.128,1.768,1.768,0,0,0-.691.137,1.48,1.48,0,0,0-.588.465,2.4,2.4,0,0,0-.406.848,5,5,0,0,0-.157,1.274,5.314,5.314,0,0,0,.152,1.274,2.614,2.614,0,0,0,.392.882,1.67,1.67,0,0,0,.568.51,1.427,1.427,0,0,0,.672.166c.072,0,.168-.005.289-.015a3.519,3.519,0,0,0,.363-.049,2.359,2.359,0,0,0,.348-.093.5.5,0,0,0,.245-.166V47.11H34.979v-.8H37.37Z" transform="translate(-28.754 -42.771)" fill="#fff"/>
  </g>
  <path id="Caminho_9907" data-name="Caminho 9907" d="M23.932,18.912a.432.432,0,0,1-.432-.432V12.432a.432.432,0,0,1,.664-.365l4.752,3.024a.433.433,0,0,1,0,.729l-4.752,3.024A.435.435,0,0,1,23.932,18.912Zm.432-5.693v4.474l3.515-2.237Z" transform="translate(-17.783 -7.026)" fill="#cad0d9"/>
  <path id="Caminho_9908" data-name="Caminho 9908" d="M19.98,17.96a6.48,6.48,0,1,1,6.48-6.48A6.487,6.487,0,0,1,19.98,17.96Zm0-12.1A5.616,5.616,0,1,0,25.6,11.48,5.622,5.622,0,0,0,19.98,5.864Z" transform="translate(-12.103 -3.05)" fill="#cad0d9"/>
</svg>
