<svg xmlns="http://www.w3.org/2000/svg" width="30.714" height="40" viewBox="0 0 30.714 40">
  <g id="jpg" transform="translate(-6.5)">
    <path id="Caminho_9763" data-name="Caminho 9763" d="M28.275,0H7.545C6.968,0,6.5.468,6.5,1.376v37.91A1.076,1.076,0,0,0,7.545,40H36.169a1.076,1.076,0,0,0,1.045-.714V9.27c0-.5-.066-.657-.184-.775L28.719.184A.631.631,0,0,0,28.275,0Z" fill="#e0e7e9"/>
    <path id="Caminho_9764" data-name="Caminho 9764" d="M37.5.151V8.643h8.493Z" transform="translate(-8.886 -0.043)" fill="#cad0d9"/>
    <circle id="Elipse_219" data-name="Elipse 219" cx="3.275" cy="3.275" r="3.275" transform="translate(12.111 7.04)" fill="#f3cf5b"/>
    <path id="Caminho_9765" data-name="Caminho 9765" d="M6.5,33.193H37.214V25.309L30.071,18.5l-7.5,8.242-3.916-3.93Z" transform="translate(0 -5.312)" fill="#26a1b9"/>
    <path id="Caminho_9766" data-name="Caminho 9766" d="M36.169,51.184H7.545A1.047,1.047,0,0,1,6.5,50.136V39H37.214V50.136A1.047,1.047,0,0,1,36.169,51.184Z" transform="translate(0 -11.184)" fill="#26a1b9"/>
    <g id="Grupo_1499" data-name="Grupo 1499" transform="translate(12.73 30.432)">
      <path id="Caminho_9767" data-name="Caminho 9767" d="M19.679,42.65v5.625a1.8,1.8,0,0,1-.186.857,1.535,1.535,0,0,1-.5.558,1.991,1.991,0,0,1-.72.294,4.142,4.142,0,0,1-.838.084,3.4,3.4,0,0,1-.5-.044,4.29,4.29,0,0,1-.6-.137q-.309-.094-.593-.211a2.166,2.166,0,0,1-.48-.264l.5-.793a1.463,1.463,0,0,0,.28.142q.181.073.4.137c.143.043.294.08.451.113a2.147,2.147,0,0,0,.441.049,1.505,1.505,0,0,0,.828-.2.793.793,0,0,0,.328-.681V42.65Z" transform="translate(-15.26 -42.65)" fill="#fff"/>
      <path id="Caminho_9768" data-name="Caminho 9768" d="M25.049,50.077H23.873V42.855H25.95a2.915,2.915,0,0,1,.911.147,2.477,2.477,0,0,1,.808.441,2.3,2.3,0,0,1,.578.71,1.968,1.968,0,0,1,.221.936,2.56,2.56,0,0,1-.186.995,2.079,2.079,0,0,1-.52.75,2.341,2.341,0,0,1-.8.47,3.092,3.092,0,0,1-1.039.166h-.872v2.607Zm0-6.33v2.861h1.078a1.281,1.281,0,0,0,.426-.074,1.074,1.074,0,0,0,.387-.24,1.174,1.174,0,0,0,.284-.465,2.2,2.2,0,0,0,.108-.74,2,2,0,0,0-.049-.406,1.173,1.173,0,0,0-.2-.441,1.188,1.188,0,0,0-.426-.353,1.577,1.577,0,0,0-.725-.143Z" transform="translate(-17.7 -42.708)" fill="#fff"/>
      <path id="Caminho_9769" data-name="Caminho 9769" d="M37.37,46.307V49.1a2.109,2.109,0,0,1-.5.465,3.084,3.084,0,0,1-.588.3,3.032,3.032,0,0,1-.637.166,4.189,4.189,0,0,1-.652.05,2.963,2.963,0,0,1-1.19-.235,2.666,2.666,0,0,1-.95-.7,3.283,3.283,0,0,1-.637-1.156,5.709,5.709,0,0,1,0-3.209,3.267,3.267,0,0,1,.637-1.151,2.709,2.709,0,0,1,.955-.7,2.916,2.916,0,0,1,1.185-.24,3.034,3.034,0,0,1,1.1.2,2.677,2.677,0,0,1,.911.588l-.813.725a1.4,1.4,0,0,0-.539-.411,1.614,1.614,0,0,0-.627-.128,1.768,1.768,0,0,0-.691.137,1.48,1.48,0,0,0-.588.465,2.4,2.4,0,0,0-.406.848,5,5,0,0,0-.157,1.274,5.314,5.314,0,0,0,.152,1.274,2.614,2.614,0,0,0,.392.882,1.67,1.67,0,0,0,.568.51,1.427,1.427,0,0,0,.672.166c.072,0,.168-.005.289-.015a3.519,3.519,0,0,0,.363-.049,2.359,2.359,0,0,0,.348-.093.5.5,0,0,0,.245-.166V47.11H34.979v-.8H37.37Z" transform="translate(-19.997 -42.662)" fill="#fff"/>
    </g>
  </g>
</svg>
