<svg xmlns="http://www.w3.org/2000/svg" width="19" height="18.998" viewBox="0 0 19 18.998">
  <g id="new" transform="translate(1.298 0.622)">
    <path id="Caminho_9796" data-name="Caminho 9796" d="M17.919,8.115c-.292-.216-.661-.485-.705-.661a2.212,2.212,0,0,1,.284-.969c.258-.591.524-1.2.228-1.714s-.968-.592-1.615-.661a2.2,2.2,0,0,1-.966-.23,2.2,2.2,0,0,1-.23-.969c-.073-.647-.148-1.316-.661-1.615s-1.127-.037-1.718.224a2.218,2.218,0,0,1-.97.284c-.178-.048-.447-.413-.661-.705C10.531.593,10.109.02,9.5.02S8.468.593,8.1,1.1c-.216.293-.485.661-.661.706a2.266,2.266,0,0,1-.97-.284C5.87,1.259,5.257,1,4.749,1.292s-.593.968-.666,1.619a2.211,2.211,0,0,1-.23.966,2.207,2.207,0,0,1-.962.226c-.648.073-1.318.148-1.616.661S1.239,5.89,1.5,6.482a2.21,2.21,0,0,1,.284.972c-.048.178-.413.448-.705.661C.573,8.487,0,8.91,0,9.52s.573,1.033,1.08,1.4c.292.216.661.485.705.661a2.212,2.212,0,0,1-.284.969c-.258.591-.524,1.2-.228,1.714s.968.592,1.615.661a2.2,2.2,0,0,1,.966.23,2.2,2.2,0,0,1,.23.969c.073.647.148,1.316.661,1.615s1.122.03,1.714-.228a2.268,2.268,0,0,1,.976-.281c.178.048.447.413.661.705.373.506.795,1.079,1.4,1.079s1.032-.573,1.4-1.079c.216-.293.485-.661.661-.706a2.23,2.23,0,0,1,.97.284c.591.258,1.2.522,1.713.229s.593-.968.666-1.616a2.211,2.211,0,0,1,.23-.966,2.207,2.207,0,0,1,.965-.229c.648-.073,1.318-.148,1.616-.661s.029-1.122-.228-1.714a2.21,2.21,0,0,1-.281-.976c.048-.178.413-.448.705-.661.506-.373,1.08-.8,1.08-1.4S18.426,8.487,17.919,8.115Z" transform="translate(-1.298 -0.642)" fill="#20ac5b"/>
    <path id="Caminho_9818" data-name="Caminho 9818" d="M1.225-2.684v.108a1.561,1.561,0,0,1,.514-.457,1.366,1.366,0,0,1,.641-.146,1.277,1.277,0,0,1,.63.154.976.976,0,0,1,.415.435,1.038,1.038,0,0,1,.114.354,3.674,3.674,0,0,1,.026.484V-.088a.593.593,0,0,1-.122.406.406.406,0,0,1-.318.137A.41.41,0,0,1,2.8.315a.59.59,0,0,1-.124-.4V-1.577a1.492,1.492,0,0,0-.122-.676.5.5,0,0,0-.488-.234.721.721,0,0,0-.434.142.818.818,0,0,0-.287.391,2.808,2.808,0,0,0-.065.746v1.12A.582.582,0,0,1,1.155.32.422.422,0,0,1,.83.456.4.4,0,0,1,.514.315a.59.59,0,0,1-.124-.4V-2.671A.564.564,0,0,1,.5-3.052a.384.384,0,0,1,.3-.126.411.411,0,0,1,.212.056.4.4,0,0,1,.152.167A.59.59,0,0,1,1.225-2.684ZM6.941-1.142H5.2A1.19,1.19,0,0,0,5.32-.6a.842.842,0,0,0,.317.35.834.834,0,0,0,.436.118,1.065,1.065,0,0,0,.292-.038.95.95,0,0,0,.256-.118,1.955,1.955,0,0,0,.228-.172q.1-.092.271-.249a.292.292,0,0,1,.2-.059A.322.322,0,0,1,7.538-.7a.27.27,0,0,1,.085.213A.582.582,0,0,1,7.528-.2,1.123,1.123,0,0,1,7.243.11a1.625,1.625,0,0,1-.48.247,2.061,2.061,0,0,1-.664.1A1.774,1.774,0,0,1,4.764-.035a1.832,1.832,0,0,1-.477-1.332A2.228,2.228,0,0,1,4.4-2.1a1.621,1.621,0,0,1,.343-.581A1.486,1.486,0,0,1,5.3-3.055a1.987,1.987,0,0,1,.731-.129,1.73,1.73,0,0,1,.9.221,1.452,1.452,0,0,1,.56.571,1.505,1.505,0,0,1,.186.714q0,.337-.193.437A1.2,1.2,0,0,1,6.941-1.142ZM5.2-1.649H6.814a1.088,1.088,0,0,0-.246-.686A.737.737,0,0,0,6-2.563a.712.712,0,0,0-.547.231A1.15,1.15,0,0,0,5.2-1.649Zm3.783-.972.581,2,.529-1.856q.085-.291.126-.4a.518.518,0,0,1,.153-.2.458.458,0,0,1,.308-.1.464.464,0,0,1,.312.1.552.552,0,0,1,.158.21q.046.113.127.391L11.8-.625l.588-2q.059-.216.095-.313a.416.416,0,0,1,.121-.17.363.363,0,0,1,.245-.074.39.39,0,0,1,.277.111.349.349,0,0,1,.118.262,1.367,1.367,0,0,1-.1.416L12.418-.248q-.095.272-.147.393a.585.585,0,0,1-.165.216A.464.464,0,0,1,11.8.456a.467.467,0,0,1-.318-.1.612.612,0,0,1-.171-.249q-.055-.147-.121-.383l-.509-1.742L10.185-.278a2.141,2.141,0,0,1-.212.548.434.434,0,0,1-.4.185A.506.506,0,0,1,9.322.4.482.482,0,0,1,9.151.235,1.233,1.233,0,0,1,9.03-.017q-.052-.146-.082-.231L8.227-2.389A1.519,1.519,0,0,1,8.119-2.8a.358.358,0,0,1,.114-.259.381.381,0,0,1,.281-.115.326.326,0,0,1,.3.126A1.871,1.871,0,0,1,8.981-2.622Z" transform="translate(1.425 10.697)" fill="#fff"/>
  </g>
</svg>
