<svg xmlns="http://www.w3.org/2000/svg" width="30.714" height="40" viewBox="0 0 30.714 40">
  <g id="others_docs" data-name="others docs" transform="translate(-6.5)">
    <path id="Caminho_9917" data-name="Caminho 9917" d="M28.275,0H7.545C6.968,0,6.5.468,6.5,1.376v37.91A1.076,1.076,0,0,0,7.545,40H36.169a1.076,1.076,0,0,0,1.045-.714V9.27c0-.5-.066-.657-.184-.775L28.719.184A.631.631,0,0,0,28.275,0Z" transform="translate(0)" fill="#e0e7e9"/>
    <path id="Caminho_9918" data-name="Caminho 9918" d="M37.5.151V8.6h8.445Z" transform="translate(-8.838 -0.043)" fill="#cad0d9"/>
    <path id="Caminho_9919" data-name="Caminho 9919" d="M36.169,51.116H7.545A1.044,1.044,0,0,1,6.5,50.073V39H37.214V50.073A1.044,1.044,0,0,1,36.169,51.116Z" transform="translate(0 -11.116)" fill="#cad0d9"/>
    <circle id="Elipse_228" data-name="Elipse 228" cx="2.5" cy="2.5" r="2.5" transform="translate(12.516 31)" fill="#fff"/>
    <ellipse id="Elipse_229" data-name="Elipse 229" cx="2" cy="2.5" rx="2" ry="2.5" transform="translate(20.536 31)" fill="#fff"/>
    <ellipse id="Elipse_230" data-name="Elipse 230" cx="2" cy="2.5" rx="2" ry="2.5" transform="translate(27.554 31)" fill="#fff"/>
  </g>
</svg>
