<svg id="pdf" xmlns="http://www.w3.org/2000/svg" width="30.714" height="40" viewBox="0 0 30.714 40">
  <path id="Caminho_9770" data-name="Caminho 9770" d="M28.275,0H7.545C6.968,0,6.5.468,6.5,1.376v37.91A1.076,1.076,0,0,0,7.545,40H36.169a1.076,1.076,0,0,0,1.045-.714V9.27c0-.5-.066-.657-.184-.775L28.719.184A.631.631,0,0,0,28.275,0Z" transform="translate(-6.5)" fill="#e0e7e9"/>
  <path id="Caminho_9771" data-name="Caminho 9771" d="M37.5.151V8.72h8.569Z" transform="translate(-15.464 -0.042)" fill="#cad0d9"/>
  <path id="Caminho_9772" data-name="Caminho 9772" d="M18.934,26.012h0a1.161,1.161,0,0,1-.7-.236,1.733,1.733,0,0,1-.806-1.621c.132-1.177,1.587-2.41,4.328-3.665A48.546,48.546,0,0,0,24.5,12.715c-.722-1.571-1.423-3.609-.912-4.8a1.387,1.387,0,0,1,.82-.879,3.551,3.551,0,0,1,.735-.124c.364,0,.685.469.912.759.213.272.7.848-.27,4.919a23.109,23.109,0,0,0,3.68,5.469,14.07,14.07,0,0,1,2.428-.259c1.133,0,1.819.264,2.1.808a1.464,1.464,0,0,1-.282,1.562,1.922,1.922,0,0,1-1.605.861,4.808,4.808,0,0,1-3.045-1.653,34.652,34.652,0,0,0-6.384,2.041,20.52,20.52,0,0,1-1.723,3.074C20.206,25.527,19.567,26.012,18.934,26.012ZM20.859,22.3c-1.545.869-2.175,1.582-2.221,1.984-.007.067-.027.242.312.5C19.058,24.756,19.687,24.469,20.859,22.3Zm9.862-3.212c.589.453.733.683,1.119.683a1.09,1.09,0,0,0,.875-.319,1.145,1.145,0,0,0,.166-.3c-.089-.047-.207-.142-.85-.142A10.574,10.574,0,0,0,30.721,19.092Zm-5.4-4.76a51.557,51.557,0,0,1-1.934,5.47,36.135,36.135,0,0,1,4.7-1.461A24.756,24.756,0,0,1,25.319,14.332Zm-.439-6.12a1.734,1.734,0,0,0,.069,2.326C25.636,9.009,24.911,8.2,24.88,8.213Z" transform="translate(-9.732 -1.912)" fill="#f61719"/>
  <path id="Caminho_9773" data-name="Caminho 9773" d="M36.169,51.294H7.545A1.052,1.052,0,0,1,6.5,50.236V39H37.214V50.236A1.052,1.052,0,0,1,36.169,51.294Z" transform="translate(-6.5 -11.294)" fill="#f61719"/>
  <g id="Grupo_1500" data-name="Grupo 1500" transform="translate(6.487 30.543)">
    <path id="Caminho_9774" data-name="Caminho 9774" d="M16.931,50.211H15.744V42.924h2.1a2.942,2.942,0,0,1,.919.148,2.5,2.5,0,0,1,.816.445,2.322,2.322,0,0,1,.584.717,1.986,1.986,0,0,1,.223.944,2.584,2.584,0,0,1-.188,1,2.1,2.1,0,0,1-.524.756,2.363,2.363,0,0,1-.811.474,3.12,3.12,0,0,1-1.048.168h-.88v2.63Zm0-6.387v2.887h1.088a1.292,1.292,0,0,0,.43-.074,1.084,1.084,0,0,0,.391-.242,1.184,1.184,0,0,0,.286-.469,2.223,2.223,0,0,0,.108-.746,2.019,2.019,0,0,0-.049-.41,1.184,1.184,0,0,0-.2-.445,1.2,1.2,0,0,0-.43-.356,1.6,1.6,0,0,0-.732-.143h-.89Z" transform="translate(-15.744 -42.924)" fill="#fff"/>
    <path id="Caminho_9775" data-name="Caminho 9775" d="M29.967,46.365a5.354,5.354,0,0,1-.193,1.538,3.822,3.822,0,0,1-.49,1.068,2.515,2.515,0,0,1-.668.678,3.348,3.348,0,0,1-.717.371,2.961,2.961,0,0,1-.633.158,4.213,4.213,0,0,1-.425.033H24.084V42.924h2.195a4.17,4.17,0,0,1,1.616.291,3.356,3.356,0,0,1,1.157.776,3.185,3.185,0,0,1,.687,1.1A3.65,3.65,0,0,1,29.967,46.365Zm-3.52,2.976a1.964,1.964,0,0,0,1.74-.771,3.914,3.914,0,0,0,.534-2.235,3.785,3.785,0,0,0-.108-.9,1.925,1.925,0,0,0-.42-.806,2.217,2.217,0,0,0-.845-.584,3.64,3.64,0,0,0-1.384-.223h-.692v5.517h1.177Z" transform="translate(-18.053 -42.924)" fill="#fff"/>
    <path id="Caminho_9776" data-name="Caminho 9776" d="M35.8,43.824v2.294H38.85v.811H35.8v3.283H34.6V42.924h4.558v.9Z" transform="translate(-20.963 -42.924)" fill="#fff"/>
  </g>
</svg>
