<svg xmlns="http://www.w3.org/2000/svg" width="30.643" height="39.907" viewBox="0 0 30.643 39.907">
  <g id="png" transform="translate(-6.5)">
    <path id="Caminho_9777" data-name="Caminho 9777" d="M28.224,0H7.543C6.967,0,6.5.467,6.5,1.373V39.195a1.073,1.073,0,0,0,1.043.713H36.1a1.073,1.073,0,0,0,1.043-.713V9.248c0-.5-.066-.656-.183-.773L28.668.183A.63.63,0,0,0,28.224,0Z" fill="#e0e7e9"/>
    <path id="Caminho_9778" data-name="Caminho 9778" d="M36.1,51.115H7.543A1.043,1.043,0,0,1,6.5,50.072V39H37.143V50.072A1.043,1.043,0,0,1,36.1,51.115Z" transform="translate(0 -11.207)" fill="#94b84c"/>
    <path id="Caminho_9779" data-name="Caminho 9779" d="M37.5.151V8.595h8.444Z" transform="translate(-8.908 -0.043)" fill="#cad0d9"/>
    <g id="Grupo_1501" data-name="Grupo 1501" transform="translate(13.088 30.472)">
      <path id="Caminho_9780" data-name="Caminho 9780" d="M16.913,50.1H15.744v-7.18h2.065a2.9,2.9,0,0,1,.906.146,2.463,2.463,0,0,1,.8.438,2.289,2.289,0,0,1,.575.706,1.957,1.957,0,0,1,.219.931,2.546,2.546,0,0,1-.185.989,2.067,2.067,0,0,1-.517.745,2.328,2.328,0,0,1-.8.467,3.074,3.074,0,0,1-1.033.165h-.867V50.1Zm0-6.294v2.845h1.072a1.273,1.273,0,0,0,.424-.073,1.068,1.068,0,0,0,.385-.239,1.167,1.167,0,0,0,.282-.462,2.191,2.191,0,0,0,.107-.735,1.989,1.989,0,0,0-.048-.4,1.167,1.167,0,0,0-.2-.438,1.181,1.181,0,0,0-.424-.351,1.575,1.575,0,0,0-.721-.141h-.877Z" transform="translate(-15.744 -42.807)" fill="#fff"/>
      <path id="Caminho_9781" data-name="Caminho 9781" d="M29.222,42.924V50.1H28.033l-2.816-4.949V50.1H24.029v-7.18h1.189l2.816,4.949V42.924Z" transform="translate(-18.125 -42.807)" fill="#fff"/>
      <path id="Caminho_9782" data-name="Caminho 9782" d="M39,46.355v2.776a2.1,2.1,0,0,1-.5.462,3.066,3.066,0,0,1-1.218.463,4.344,4.344,0,0,1-.648.048,2.947,2.947,0,0,1-1.184-.234,2.651,2.651,0,0,1-.945-.692,3.265,3.265,0,0,1-.634-1.149,5.677,5.677,0,0,1,0-3.19A3.248,3.248,0,0,1,34.5,43.7a2.694,2.694,0,0,1,.95-.7,2.9,2.9,0,0,1,1.179-.239,3.017,3.017,0,0,1,1.091.195,2.662,2.662,0,0,1,.906.584l-.809.721a1.39,1.39,0,0,0-.536-.409,1.6,1.6,0,0,0-.624-.127,1.758,1.758,0,0,0-.687.136,1.472,1.472,0,0,0-.584.462,2.383,2.383,0,0,0-.4.843,4.972,4.972,0,0,0-.156,1.266A5.283,5.283,0,0,0,34.98,47.7a2.6,2.6,0,0,0,.39.877,1.66,1.66,0,0,0,.565.507,1.419,1.419,0,0,0,.668.165c.071,0,.167,0,.287-.015a3.5,3.5,0,0,0,.361-.048,2.345,2.345,0,0,0,.346-.093.5.5,0,0,0,.244-.165V47.153H36.622v-.8H39Z" transform="translate(-20.887 -42.76)" fill="#fff"/>
    </g>
    <circle id="Elipse_220" data-name="Elipse 220" cx="3.256" cy="3.256" r="3.256" transform="translate(12.103 7.028)" fill="#f3cf5b"/>
    <path id="Caminho_9783" data-name="Caminho 9783" d="M6.5,33.109H37.143V25.27L30.017,18.5l-7.483,8.2-3.907-3.907Z" transform="translate(0 -5.316)" fill="#94b84c"/>
  </g>
</svg>
