<svg xmlns="http://www.w3.org/2000/svg" width="9.746" height="10.146" viewBox="0 0 9.746 10.146">
  <g id="refresh_1_" data-name="refresh (1)" transform="translate(-9.361 0.1)">
    <g id="Grupo_1511" data-name="Grupo 1511" transform="translate(9.461)">
      <path id="Caminho_9822" data-name="Caminho 9822" d="M18.929,4.384A.37.37,0,0,0,18.2,4.5v.007a4.079,4.079,0,1,1-1.013-2.071l-1.641.547a.37.37,0,0,0-.235.468h0a.37.37,0,0,0,.468.235h0L18,2.945a.37.37,0,0,0,.253-.352V.37a.37.37,0,1,0-.741,0V1.724a4.767,4.767,0,1,0,1.415,2.66Z" transform="translate(-9.461)" fill="#070532" stroke="#707070" stroke-width="0.2"/>
    </g>
  </g>
</svg>
