<svg id="zip" xmlns="http://www.w3.org/2000/svg" width="30.714" height="40" viewBox="0 0 30.714 40">
  <path id="Caminho_9784" data-name="Caminho 9784" d="M28.275,0H7.545C6.968,0,6.5.468,6.5,1.376v37.91A1.076,1.076,0,0,0,7.545,40H36.169a1.076,1.076,0,0,0,1.045-.714V9.27c0-.5-.066-.657-.184-.775L28.719.184A.631.631,0,0,0,28.275,0Z" transform="translate(-6.5)" fill="#e0e7e9"/>
  <path id="Caminho_9785" data-name="Caminho 9785" d="M37.5.151V8.72h8.569Z" transform="translate(-15.464 -0.042)" fill="#cad0d9"/>
  <path id="Caminho_9786" data-name="Caminho 9786" d="M36.169,51.294H7.545A1.052,1.052,0,0,1,6.5,50.236V39H37.214V50.236A1.052,1.052,0,0,1,36.169,51.294Z" transform="translate(-6.5 -11.294)" fill="#336196"/>
  <g id="Grupo_1502" data-name="Grupo 1502" transform="translate(8.529 30.543)">
    <path id="Caminho_9787" data-name="Caminho 9787" d="M23.412,42.924v.959l-3.471,5.211-.2.158h3.668v.959H18.567v-.959l3.471-5.211.208-.158H18.567v-.959Z" transform="translate(-18.567 -42.924)" fill="#fff"/>
    <path id="Caminho_9788" data-name="Caminho 9788" d="M28.809,50.211H27.6V42.924h1.206Z" transform="translate(-21.068 -42.924)" fill="#fff"/>
    <path id="Caminho_9789" data-name="Caminho 9789" d="M32.96,50.211H31.773V42.924h2.1a2.942,2.942,0,0,1,.919.148,2.5,2.5,0,0,1,.816.445,2.322,2.322,0,0,1,.584.717,1.986,1.986,0,0,1,.223.944,2.584,2.584,0,0,1-.188,1,2.1,2.1,0,0,1-.524.756,2.363,2.363,0,0,1-.811.474,3.12,3.12,0,0,1-1.048.168h-.88v2.63Zm0-6.387v2.887h1.088a1.292,1.292,0,0,0,.43-.074,1.084,1.084,0,0,0,.391-.242,1.184,1.184,0,0,0,.286-.469,2.223,2.223,0,0,0,.108-.746,2.019,2.019,0,0,0-.049-.41,1.184,1.184,0,0,0-.2-.445,1.2,1.2,0,0,0-.43-.356,1.6,1.6,0,0,0-.732-.143h-.89Z" transform="translate(-22.222 -42.924)" fill="#fff"/>
  </g>
  <g id="Grupo_1503" data-name="Grupo 1503" transform="translate(11.385 4.339)">
    <path id="Caminho_9790" data-name="Caminho 9790" d="M26.839,19.018V17.571h1.446V16.125H26.839V14.678h1.446V13.232H26.839V11.786h1.446V10.339H26.839V8.893h1.446V7.446H26.839V6H25.393V7.446H23.946V8.893h1.446v1.446H23.946v1.446h1.446v1.446H23.946v1.446h1.446v1.446H23.946v1.446h1.446v1.446H22.5v3.616a3.616,3.616,0,0,0,7.232,0V19.018Zm1.446,3.616a2.17,2.17,0,0,1-4.339,0v-2.17h4.339Z" transform="translate(-22.5 -6)" fill="#cad0d9"/>
    <path id="Caminho_9791" data-name="Caminho 9791" d="M26.223,29.446H27.67a.723.723,0,0,0,0-1.446H26.223a.723.723,0,0,0,0,1.446Z" transform="translate(-23.33 -12.09)" fill="#cad0d9"/>
  </g>
</svg>
