<svg xmlns="http://www.w3.org/2000/svg" width="1107.146" height="250.51" viewBox="0 0 1107.146 250.51">
  <g id="logo_azul" transform="translate(-0.004)">
    <path id="Caminho_2603" data-name="Caminho 2603" d="M521,94.14a70.6,70.6,0,0,0-41.81-32.3,69,69,0,0,0-18.55-2.48H392.08a1.47,1.47,0,0,0-1.48,1.46V232.9a1.5,1.5,0,0,0,1.48,1.48h32.08a1.49,1.49,0,0,0,1.47-1.48V199.35h35a68.14,68.14,0,0,0,27.16-5.49,70.22,70.22,0,0,0,37.28-37.29,67.83,67.83,0,0,0,5.49-27.16,68.712,68.712,0,0,0-2.49-18.56A71.291,71.291,0,0,0,521,94.14ZM492.82,143a35.07,35.07,0,0,1-18.62,18.68,33.65,33.65,0,0,1-13.54,2.75h-35V94.38h35a33.82,33.82,0,0,1,13.54,2.74,35.075,35.075,0,0,1,18.62,45.89Z" transform="translate(-46.75 -8.88)" fill="#03033a"/>
    <path id="Caminho_2604" data-name="Caminho 2604" d="M653.12,117.63a62.86,62.86,0,0,0-21.18-14,68,68,0,0,0-26-4.95A64.85,64.85,0,0,0,580,103.9a66.34,66.34,0,0,0-35.58,36.37,71.44,71.44,0,0,0-5.25,27.59,70.42,70.42,0,0,0,5.25,27.28A66.053,66.053,0,0,0,653.12,217a68,68,0,0,0,14.28-21.84,70.241,70.241,0,0,0,5.25-27.28,73.73,73.73,0,0,0-5.25-28.38,66.25,66.25,0,0,0-14.28-21.87Zm-16.66,64.75a34,34,0,0,1-7.13,11.23,32.46,32.46,0,0,1-10.56,7.21,33,33,0,0,1-12.87,2.56,30.87,30.87,0,0,1-12.9-2.75,32.85,32.85,0,0,1-10.51-7.51,35,35,0,0,1-7-11.24,37.59,37.59,0,0,1-2.57-14,39.7,39.7,0,0,1,2.57-14.6,34.42,34.42,0,0,1,7-11.23A30.26,30.26,0,0,1,593,134.84a34.28,34.28,0,0,1,25.75,0A31.22,31.22,0,0,1,629.33,142a35,35,0,0,1,7.13,11.23,41.77,41.77,0,0,1,0,29.12Z" transform="translate(-46.75 -8.88)" fill="#03033a"/>
    <path id="Caminho_2605" data-name="Caminho 2605" d="M784.77,118.24a58.421,58.421,0,0,0-18.55-12.57,56.44,56.44,0,0,0-22.58-4.58,58.34,58.34,0,0,0-21.3,4c-1.34.53-2.67,1.11-4,1.74v-4.21a1.49,1.49,0,0,0-1.49-1.49H686.53a1.49,1.49,0,0,0-1.47,1.49V232.9a1.49,1.49,0,0,0,1.47,1.48h30.36a1.49,1.49,0,0,0,1.49-1.48V159.68a24.379,24.379,0,0,1,2-9.71,25.28,25.28,0,0,1,5.36-8,25,25,0,0,1,8.06-5.37,25.251,25.251,0,0,1,9.89-2,24,24,0,0,1,9.64,2A25.3,25.3,0,0,1,766.6,150a24.711,24.711,0,0,1,1.93,9.71V232.9a1.5,1.5,0,0,0,1.48,1.48h30.37a1.49,1.49,0,0,0,1.48-1.48V159.68a57.2,57.2,0,0,0-4.58-22.76,59.672,59.672,0,0,0-12.51-18.68Z" transform="translate(-46.75 -8.88)" fill="#03033a"/>
    <path id="Caminho_2606" data-name="Caminho 2606" d="M1003.13,103.73H954.47V53.63c0-1.76-1.23-2.48-2.73-1.59l-1.06.61c-1.51.85-4,2.28-5.47,3.17L923.64,68.25A6.11,6.11,0,0,0,920.9,73v7.53c0,.12-.13.19-.13.31V98.71c0,.19,0,4.87.1,5H861.31V53.61c0-1.76-1.22-2.48-2.74-1.59l-1,.61c-1.52.85-4,2.28-5.49,3.17l-21.6,12.45A6.08,6.08,0,0,0,827.74,73v30.73H813.36a1.49,1.49,0,0,0-1.47,1.48v30.37a1.49,1.49,0,0,0,1.47,1.48h14.5v38.81a56.908,56.908,0,0,0,4.58,22.7,59,59,0,0,0,31.19,31.18,56.41,56.41,0,0,0,21.66,4.56h24.84a1.49,1.49,0,0,0,1.46-1.48v-30.3a1.48,1.48,0,0,0-1.46-1.48H885.38a.87.87,0,0,0-.31.07,24.85,24.85,0,0,1-8.66-2,25.929,25.929,0,0,1-8.07-5.43,25.512,25.512,0,0,1-5.37-8,24.941,24.941,0,0,1-1.94-9.82V137.1h59.84v38.81a56.74,56.74,0,0,0,4.58,22.7,59,59,0,0,0,31.18,31.18,56.42,56.42,0,0,0,21.67,4.56h24.81a1.49,1.49,0,0,0,1.49-1.48V202.53a1.49,1.49,0,0,0-1.49-1.48H978.42a.741.741,0,0,0-.31.07,25.06,25.06,0,0,1-8.68-2,26.15,26.15,0,0,1-8-5.43,25.342,25.342,0,0,1-5.37-8,24.773,24.773,0,0,1-2-9.82V137.1h49.07a1.47,1.47,0,0,0,1.47-1.48V105.21a1.48,1.48,0,0,0-1.47-1.48Z" transform="translate(-46.75 -8.88)" fill="#03033a"/>
    <path id="Caminho_2607" data-name="Caminho 2607" d="M1108.13,197.47s-8.79,8-20.85,7.47S1065,199.28,1058,186.4h93.75a71.418,71.418,0,0,0,2.15-17.12c0-38.15-29.85-69.08-66.66-69.08s-66.66,30.93-66.66,69.08,29.85,69.08,66.66,69.08a65,65,0,0,0,42.42-15.79Zm-20.94-63.57c26.09,0,31.68,24.19,31.68,24.19h-63.18s5.53-24.19,31.5-24.19Z" transform="translate(-46.75 -8.88)" fill="#03033a"/>
    <path id="Caminho_2608" data-name="Caminho 2608" d="M156.09,95.59c2.47,4.23,8.48,7.73,13.38,7.73h35.79c4.91,0,10.88,3.5,13.33,7.72l17,30c2.42,4.26,8.4,7.72,13.31,7.72h91.42c4.9,0,6.9-3.46,4.47-7.69L273,16.6a17.08,17.08,0,0,0-13.38-7.72H115c-4.91,0-6.91,3.53-4.47,7.76Z" transform="translate(-46.75 -8.88)" fill="#03033a"/>
    <path id="Caminho_2609" data-name="Caminho 2609" d="M93.39,206.22c2.46,4.22,8.47,7.72,13.38,7.72h35.79c4.91,0,10.88,3.5,13.32,7.72l17,30c2.41,4.27,8.39,7.73,13.3,7.73h91.43c4.9,0,6.9-3.46,4.46-7.69l-71.8-124.48a17.08,17.08,0,0,0-13.38-7.72H52.26c-4.91,0-6.9,3.53-4.47,7.77Z" transform="translate(-46.75 -8.88)" fill="#03033a"/>
  </g>
</svg>
