<?xml version="1.0" encoding="utf-8"?>
<!-- Generator: Adobe Illustrator 26.0.2, SVG Export Plug-In . SVG Version: 6.00 Build 0)  -->
<svg version="1.1" id="Layer_1" xmlns="http://www.w3.org/2000/svg" xmlns:xlink="http://www.w3.org/1999/xlink" x="0px" y="0px"
     viewBox="0 0 178.7 149.65" style="enable-background:new 0 0 178.7 149.65;" xml:space="preserve">
<style type="text/css">
	.st0{fill:#5C3B6B;}
</style>
    <g>
	<g>
		<path class="st0" d="M65.33,51.81c1.48,2.53,5.06,4.62,7.99,4.62H94.7c2.93,0,6.5,2.09,7.96,4.61l10.17,17.9
			c1.44,2.55,5.02,4.62,7.95,4.62h54.62c2.93,0,4.12-2.07,2.67-4.6L135.16,4.61C133.68,2.05,130.09,0,127.17,0H40.75
			c-2.93,0-4.13,2.11-2.67,4.64L65.33,51.81z"/>
        <path class="st0" d="M27.86,117.9c1.47,2.53,5.06,4.62,7.99,4.62h21.38c2.93,0,6.5,2.09,7.96,4.61l10.17,17.9
			c1.44,2.55,5.02,4.62,7.95,4.62h54.62c2.93,0,4.12-2.07,2.67-4.6L97.69,70.7c-1.47-2.56-5.06-4.61-7.99-4.61H3.29
			c-2.93,0-4.13,2.11-2.67,4.64L27.86,117.9z"/>
	</g>
</g>
</svg>
