<svg xmlns="http://www.w3.org/2000/svg" width="13.124" height="14.644" viewBox="0 0 13.124 14.644"><defs><style>.a{fill:#fff;}</style></defs><g transform="translate(0)"><path class="a" d="M113.5,200.572a.572.572,0,0,0-.572-.572h-5.892a.572.572,0,0,0,0,1.144h5.892A.572.572,0,0,0,113.5,200.572Z" transform="translate(-104.174 -194.28)"/><path class="a" d="M107.031,280a.572.572,0,0,0,0,1.144h3.578a.572.572,0,0,0,0-1.144Z" transform="translate(-104.174 -271.992)"/><path class="a" d="M30.771,13.5H28.858a1.145,1.145,0,0,1-1.144-1.144V2.288a1.145,1.145,0,0,1,1.144-1.144h7.033a1.145,1.145,0,0,1,1.144,1.144V5.806a.572.572,0,0,0,1.144,0V2.288A2.291,2.291,0,0,0,35.891,0H28.858A2.291,2.291,0,0,0,26.57,2.288V12.356a2.291,2.291,0,0,0,2.288,2.288h1.913a.572.572,0,1,0,0-1.144Z" transform="translate(-26.57)"/><path class="a" d="M249.876,272.526a1.718,1.718,0,0,0-2.426,0l-3.141,3.134a.572.572,0,0,0-.143.239l-.684,2.252a.572.572,0,0,0,.7.718l2.309-.64a.572.572,0,0,0,.251-.146l3.134-3.128A1.718,1.718,0,0,0,249.876,272.526Zm-3.836,4.639-1.162.322.34-1.119,2.119-2.114.809.809Zm3.027-3.021-.111.111-.809-.809.11-.11a.572.572,0,0,1,.809.809Z" transform="translate(-237.254 -264.244)"/><path class="a" d="M112.923,120h-5.892a.572.572,0,0,0,0,1.144h5.892a.572.572,0,0,0,0-1.144Z" transform="translate(-104.174 -116.568)"/></g></svg>